<svg width="41" height="19" viewBox="0 0 41 19" fill="none" xmlns="http://www.w3.org/2000/svg">
<path d="M33.1582 0.983398C34.6312 0.983413 35.9573 1.32018 37.1367 1.99414C38.3217 2.66271 39.2565 3.63573 39.9414 4.91309C40.6317 6.19042 40.9775 7.73968 40.9775 9.56055C40.9775 11.3813 40.6317 12.9307 39.9414 14.208C39.2565 15.4852 38.3215 16.4608 37.1367 17.1348C35.9573 17.8032 34.6311 18.1377 33.1582 18.1377C31.6744 18.1377 30.3425 17.8009 29.1631 17.127C28.3607 16.6685 27.6731 16.0697 27.0996 15.332C26.5238 16.073 25.8331 16.6748 25.0244 17.1348C23.845 17.8033 22.5188 18.1376 21.0459 18.1377C19.5622 18.1377 18.2302 17.8008 17.0508 17.127C16.2055 16.6439 15.4877 16.0048 14.8965 15.2119C14.303 16.0085 13.5815 16.6501 12.7295 17.1348C11.5501 17.8033 10.2239 18.1376 8.75098 18.1377C7.26726 18.1377 5.93526 17.8008 4.75586 17.127C3.57635 16.4529 2.64386 15.4766 1.95898 14.1992C1.27421 12.922 0.931681 11.3758 0.931641 9.56055C0.931641 7.73972 1.27417 6.1904 1.95898 4.91309C2.64386 3.63573 3.57635 2.66271 4.75586 1.99414C5.93533 1.3202 7.26715 0.983398 8.75098 0.983398C10.2239 0.983449 11.5501 1.32018 12.7295 1.99414C13.5798 2.47395 14.3007 3.11096 14.8936 3.9043C15.4853 3.11089 16.2042 2.47397 17.0508 1.99414C18.2302 1.32023 19.5621 0.983398 21.0459 0.983398C22.5188 0.983466 23.845 1.3202 25.0244 1.99414C25.8314 2.44947 26.5216 3.0465 27.0967 3.78418C27.6707 3.04617 28.3595 2.44961 29.1631 1.99414C30.3426 1.32013 31.6743 0.983398 33.1582 0.983398ZM8.75098 4.10547C7.8976 4.10547 7.15256 4.31486 6.5166 4.7334C5.88068 5.15191 5.38651 5.76634 5.0332 6.57617C4.68533 7.38607 4.51074 8.38103 4.51074 9.56055C4.51077 10.7398 4.68541 11.7342 5.0332 12.5439C5.38649 13.3538 5.88071 13.9682 6.5166 14.3867C7.15256 14.8053 7.8976 15.0146 8.75098 15.0146C9.60419 15.0146 10.3485 14.8052 10.9844 14.3867C11.6203 13.9682 12.1121 13.3538 12.46 12.5439C12.8132 11.7342 12.9902 10.7398 12.9902 9.56055C12.9902 8.38103 12.8133 7.38607 12.46 6.57617C12.1121 5.76633 11.6203 5.15192 10.9844 4.7334C10.3485 4.31501 9.60412 4.10552 8.75098 4.10547ZM21.0459 4.10547C20.1926 4.10547 19.4475 4.3149 18.8115 4.7334C18.1756 5.15194 17.6805 5.76628 17.3271 6.57617C16.9793 7.38603 16.8057 8.38113 16.8057 9.56055C16.8057 10.7397 16.9794 11.7342 17.3271 12.5439C17.6804 13.3538 18.1756 13.9682 18.8115 14.3867C19.4475 14.8053 20.1925 15.0146 21.0459 15.0146C21.8991 15.0146 22.6434 14.8052 23.2793 14.3867C23.9153 13.9682 24.407 13.3538 24.7549 12.5439C25.1081 11.7342 25.2851 10.7398 25.2852 9.56055C25.2852 8.38103 25.1082 7.38607 24.7549 6.57617C24.407 5.76631 23.9152 5.15192 23.2793 4.7334C22.6435 4.315 21.899 4.10554 21.0459 4.10547ZM33.1582 4.10547C32.3048 4.10547 31.5598 4.31486 30.9238 4.7334C30.288 5.15193 29.7937 5.76636 29.4404 6.57617C29.0926 7.38607 28.918 8.38103 28.918 9.56055C28.918 10.7398 29.0927 11.7342 29.4404 12.5439C29.7937 13.3537 30.288 13.9682 30.9238 14.3867C31.5598 14.8053 32.3048 15.0146 33.1582 15.0146C34.0115 15.0146 34.7566 14.8052 35.3926 14.3867C36.0283 13.9682 36.5204 13.3537 36.8682 12.5439C37.2213 11.7342 37.3974 10.7397 37.3975 9.56055C37.3975 8.38111 37.2214 7.38604 36.8682 6.57617C36.5203 5.7664 36.0284 5.15193 35.3926 4.7334C34.7566 4.31488 34.0115 4.10548 33.1582 4.10547Z" fill="black"/>
</svg>
